#N canvas 72 51 1076 663 12;
#X obj 134 337 pack f f;
#X msg 134 307 1;
#X obj 146 449 s toComport;
#X msg 134 385 print \$1d\$2b;
#X obj 30 174 bng 50 250 50 0 empty empty MOTOR_OFF 1 -7 0 10 -257985
-258113 -1;
#X obj 134 174 bng 30 250 50 0 empty empty LEFT 1 -7 0 10 -262144 -1
-1;
#X obj 174 174 bng 30 250 50 0 empty empty RIGHT 1 -7 0 10 -262144
-1 -1;
#X msg 174 307 -1;
#N canvas 31 393 408 262 comport 0;
#X msg 29 72 devices;
#X msg 42 126 close;
#X obj 29 185 comport 2 115200;
#X obj 86 158 r toComport;
#X obj 162 32 inlet;
#X obj 212 32 inlet;
#X obj 112 32 inlet;
#X msg 96 126 open 0;
#X connect 0 0 2 0;
#X connect 1 0 2 0;
#X connect 3 0 2 0;
#X connect 4 0 1 0;
#X connect 5 0 7 0;
#X connect 6 0 0 0;
#X connect 7 0 2 0;
#X restore 32 57 pd comport;
#X msg 30 365 print x;
#X obj 32 23 bng 30 250 50 0 empty empty PORT 0 -7 0 10 -262144 -1
-1;
#X obj 70 23 bng 30 250 50 0 empty empty CLOSE 0 -7 0 10 -262144 -1
-1;
#X obj 109 23 bng 30 250 50 0 empty empty OPEN 0 -7 0 10 -262144 -1
-1;
#N canvas 0 244 670 380 osc 0;
#X obj 86 183 unpackOSC;
#X msg 86 111 status;
#X obj 185 210 print;
#X obj 86 238 routeOSC /1/push1;
#X obj 86 273 bng 15 250 50 0 empty empty empty 17 7 0 10 -262144 -1
-1;
#X obj 86 136 udpreceive 5050;
#X obj 462 146 packOSC;
#X msg 324 157 disconnect;
#X obj 342 236 tgl 15 0 empty empty empty 17 7 0 10 -262144 -1 -1 0
1;
#X obj 344 212 udpsend;
#X msg 492 118 send /1/push1;
#X msg 344 187 connect 192.168.1.133 5050;
#X obj 462 85 r toOsc;
#X obj 609 188 print;
#X connect 0 0 3 0;
#X connect 0 0 2 0;
#X connect 1 0 5 0;
#X connect 3 0 4 0;
#X connect 5 0 0 0;
#X connect 6 0 9 0;
#X connect 7 0 9 0;
#X connect 9 0 8 0;
#X connect 10 0 6 0;
#X connect 11 0 9 0;
#X connect 12 0 6 0;
#X connect 12 0 13 0;
#X restore 34 88 pd osc;
#X obj 257 449 s toOsc;
#X obj 134 495 print C;
#X obj 245 495 print O;
#X msg 244 385 send /\$1d\$2b;
#X msg 60 395 send /x;
#X obj 563 19 tgl 40 0 empty empty empty 17 7 0 10 -258113 -1 -1 0
1;
#X msg 570 65 \; pd dsp \$1;
#X obj 658 22 adc~ 1;
#X floatatom 770 200 5 0 0 0 - - -, f 5;
#X obj 659 152 fiddle~ 1024 1 20 3;
#X floatatom 659 198 5 0 0 0 - - -, f 5;
#X obj 696 178 bng 15 250 50 0 empty empty empty 17 7 0 10 -262144
-1 -1;
#X obj 659 220 mtof;
#X floatatom 659 246 10 0 0 0 - - -, f 10;
#X floatatom 641 485 5 0 0 0 - - -, f 5;
#X msg 609 459 1;
#X obj 659 384 * 2;
#X floatatom 692 384 5 0 0 0 - - -, f 5;
#X text 673 122 CONFIRMAR SE É MESMO NECESSÁRIO;
#X text 771 224 Db;
#X obj 659 411 / 1e+06, f 13;
#X obj 609 509 i;
#X floatatom 641 509 10 0 0 0 - - -, f 10;
#X obj 705 310 hsl 128 15 -10 10 0 0 empty empty empty -2 -8 0 10 -262144
-1 -1 7620 1;
#X obj 659 350 +;
#X floatatom 702 331 5 0 0 0 - - -, f 5;
#X obj 739 284 loadbang;
#X msg 702 284 2;
#X obj 229 174 hsl 100 30 10 15000 0 0 empty empty PERIOD_QUARTER_STEP
1 -7 0 10 -262144 -1 -1 0 0;
#X floatatom 226 242 5 0 0 0 - - -, f 5;
#X obj 226 128 + 10;
#X obj 226 75 metro 500;
#X obj 306 75 tgl 20 0 empty empty empty 17 7 0 10 -262144 -1 -1 0
1;
#X obj 226 102 random 10000;
#X floatatom 609 558 10 0 0 0 - - -, f 10;
#X obj 396 292 t b f;
#X obj 399 174 hsl 100 30 100 20000 0 0 empty empty PERIOD_QUARTER_STEP
1 -7 0 10 -262144 -1 -1 0 0;
#X obj 396 267 line;
#X floatatom 439 267 5 0 0 0 - - -, f 5;
#X msg 396 243 \$1 100;
#X obj 396 217 i;
#X obj 226 217 i;
#X obj 121 105 delay 100;
#X obj 170 56 / 2;
#X floatatom 352 30 5 0 0 0 - - -, f 5;
#X obj 418 548 sel 0;
#X obj 609 534 * 2;
#X obj 609 485 /;
#X obj 659 438 t b f;
#X floatatom 495 583 5 0 0 0 - - -, f 5;
#X obj 387 586 delay 100;
#X obj 361 490 expr $f1 \; if ($f1 < 80 \, 0 \, $f1);
#X msg 671 94 amp-range 60 82;
#X text 838 555 Oficinas do Convento;
#X text 838 575 2019/04/20;
#X connect 0 0 3 0;
#X connect 1 0 0 0;
#X connect 3 0 2 0;
#X connect 3 0 15 0;
#X connect 4 0 9 0;
#X connect 4 0 18 0;
#X connect 5 0 1 0;
#X connect 6 0 7 0;
#X connect 7 0 0 0;
#X connect 9 0 2 0;
#X connect 9 0 15 0;
#X connect 10 0 8 0;
#X connect 11 0 8 1;
#X connect 12 0 8 2;
#X connect 17 0 14 0;
#X connect 17 0 16 0;
#X connect 19 0 20 0;
#X connect 21 0 23 0;
#X connect 23 0 24 0;
#X connect 23 1 25 0;
#X connect 23 3 22 0;
#X connect 23 3 65 0;
#X connect 24 0 26 0;
#X connect 26 0 27 0;
#X connect 27 0 38 0;
#X connect 29 0 61 0;
#X connect 30 0 31 0;
#X connect 30 0 34 0;
#X connect 34 0 62 0;
#X connect 35 0 36 0;
#X connect 35 0 60 0;
#X connect 37 0 39 0;
#X connect 37 0 38 1;
#X connect 38 0 30 0;
#X connect 40 0 41 0;
#X connect 41 0 37 0;
#X connect 42 0 55 0;
#X connect 44 0 42 0;
#X connect 45 0 47 0;
#X connect 46 0 45 0;
#X connect 47 0 44 0;
#X connect 48 0 42 0;
#X connect 49 0 0 0;
#X connect 49 1 0 1;
#X connect 50 0 54 0;
#X connect 51 0 49 0;
#X connect 51 0 52 0;
#X connect 53 0 51 0;
#X connect 54 0 53 0;
#X connect 55 0 43 0;
#X connect 55 0 49 0;
#X connect 56 0 4 0;
#X connect 57 0 56 1;
#X connect 58 0 45 1;
#X connect 58 0 57 0;
#X connect 60 0 48 0;
#X connect 61 0 28 0;
#X connect 61 0 35 0;
#X connect 62 0 29 0;
#X connect 62 1 61 1;
#X connect 65 1 59 0;
#X connect 65 1 63 0;
#X connect 66 0 23 0;
